<?xml version="1.0" standalone="no"?>
<!DOCTYPE svg PUBLIC "-//W3C//DTD SVG 20010904//EN"
 "http://www.w3.org/TR/2001/REC-SVG-20010904/DTD/svg10.dtd">
<svg version="1.0" xmlns="http://www.w3.org/2000/svg"
 width="512.000000pt" height="512.000000pt" viewBox="0 0 512.000000 512.000000"
 preserveAspectRatio="xMidYMid meet">

<g transform="translate(0.000000,512.000000) scale(0.100000,-0.100000)"
fill="#000000" stroke="none">
<path d="M1725 4010 c-66 -38 -124 -71 -130 -73 -9 -3 24 -77 45 -100 5 -6
240 120 260 139 4 5 -40 93 -50 99 -3 2 -60 -28 -125 -65z"/>
<path d="M3246 4036 c-14 -24 -26 -48 -26 -53 0 -7 36 -29 201 -122 l57 -32
26 47 c14 26 26 49 26 53 0 5 -40 29 -201 120 l-57 32 -26 -45z"/>
<path d="M2500 3490 l0 -140 60 0 60 0 0 140 0 140 -60 0 -60 0 0 -140z"/>
<path d="M1616 3104 c-14 -25 -26 -49 -26 -53 0 -3 30 -23 68 -43 37 -21 95
-53 129 -73 l61 -35 26 44 c14 25 26 49 26 53 0 7 -214 135 -251 151 -4 2 -19
-18 -33 -44z"/>
<path d="M3350 3079 c-69 -40 -127 -73 -130 -76 -4 -4 40 -92 51 -98 4 -3 243
127 258 141 4 4 -34 80 -48 96 -4 4 -63 -24 -131 -63z"/>
<path d="M870 2560 l0 -140 60 0 60 0 0 140 0 140 -60 0 -60 0 0 -140z"/>
<path d="M4130 2560 l0 -140 60 0 60 0 0 140 0 140 -60 0 -60 0 0 -140z"/>
<path d="M1725 2150 c-66 -38 -124 -71 -130 -73 -9 -3 24 -77 45 -100 5 -6
240 120 260 139 4 5 -40 93 -50 99 -3 2 -60 -28 -125 -65z"/>
<path d="M3246 2176 c-14 -24 -26 -48 -26 -53 0 -7 36 -29 201 -122 l57 -32
26 47 c14 26 26 49 26 53 0 5 -40 29 -201 120 l-57 32 -26 -45z"/>
<path d="M2500 1630 l0 -140 60 0 60 0 0 140 0 140 -60 0 -60 0 0 -140z"/>
<path d="M1616 1240 c-16 -28 -26 -53 -24 -54 2 -2 123 -71 250 -142 6 -4 58
78 58 93 0 7 -212 135 -250 151 -4 1 -19 -20 -34 -48z"/>
<path d="M3350 1219 c-69 -40 -127 -73 -130 -76 -4 -4 40 -92 51 -98 4 -3 243
127 258 141 4 4 -34 80 -48 96 -4 4 -63 -24 -131 -63z"/>
</g>
</svg>
