<?xml version="1.0" standalone="no"?>
<!DOCTYPE svg PUBLIC "-//W3C//DTD SVG 20010904//EN"
 "http://www.w3.org/TR/2001/REC-SVG-20010904/DTD/svg10.dtd">
<svg version="1.0" xmlns="http://www.w3.org/2000/svg"
 width="512.000000pt" height="512.000000pt" viewBox="0 0 512.000000 512.000000"
 preserveAspectRatio="xMidYMid meet">

<g transform="translate(0.000000,512.000000) scale(0.100000,-0.100000)"
fill="#000000" stroke="none">
<path d="M1273 5109 c-304 -35 -553 -253 -634 -555 -19 -69 -22 -115 -26 -356
l-5 -278 151 0 151 0 0 264 c0 304 8 348 81 450 190 266 594 242 762 -44 49
-85 57 -141 57 -417 l0 -253 151 0 151 0 -4 293 -4 292 -32 94 c-42 122 -89
198 -176 289 -115 120 -258 196 -417 221 -72 12 -103 12 -206 0z"/>
<path d="M3673 5109 c-304 -35 -553 -253 -634 -555 -19 -69 -22 -115 -26 -356
l-5 -278 151 0 151 0 0 264 c0 304 8 348 81 450 190 266 594 242 762 -44 49
-85 57 -141 57 -417 l0 -253 151 0 151 0 -4 293 -4 292 -32 94 c-42 122 -89
198 -176 289 -115 120 -258 196 -417 221 -72 12 -103 12 -206 0z"/>
<path d="M1295 3300 c-130 -21 -242 -94 -312 -204 -86 -134 -87 -329 -5 -466
35 -57 119 -135 177 -165 l55 -27 0 -468 0 -468 -262 -4 c-240 -4 -269 -6
-327 -27 -73 -26 -130 -62 -182 -118 -88 -94 -117 -170 -126 -334 l-6 -119
-154 0 -153 0 0 -150 0 -150 153 0 154 0 6 -119 c9 -170 47 -261 144 -352 57
-53 92 -75 163 -101 l65 -23 650 -3 c465 -2 667 0 710 8 132 26 247 111 308
227 43 85 57 148 57 268 l0 95 148 0 149 0 6 -119 c9 -170 47 -261 144 -352
57 -53 92 -75 163 -101 l65 -23 650 -3 c465 -2 667 0 710 8 132 26 247 111
308 227 43 85 57 148 57 268 l0 95 155 0 155 0 0 150 0 150 -155 0 -155 0 0
95 c0 120 -14 183 -57 268 -60 113 -173 199 -301 226 -31 6 -156 11 -297 11
l-245 0 0 468 1 467 49 23 c107 50 204 169 235 287 76 296 -163 589 -458 560
-155 -16 -277 -87 -354 -209 -86 -134 -87 -329 -5 -466 35 -57 119 -135 177
-165 l55 -27 0 -468 0 -468 -262 -4 c-240 -4 -269 -6 -327 -27 -73 -26 -130
-62 -182 -118 -88 -94 -117 -170 -126 -334 l-6 -119 -149 0 -148 0 0 95 c0
120 -14 183 -57 268 -60 113 -173 199 -301 226 -31 6 -156 11 -297 11 l-245 0
0 468 1 467 49 23 c65 31 147 106 187 173 151 253 13 589 -272 663 -63 17
-100 18 -180 6z m731 -2116 c62 -30 79 -65 82 -181 l4 -103 -151 0 -151 0 0
-150 0 -150 151 0 151 0 -4 -102 c-2 -87 -6 -108 -25 -134 -47 -66 -24 -64
-730 -64 -619 0 -639 1 -671 20 -57 35 -72 72 -72 183 l0 97 150 0 150 0 0
150 0 150 -150 0 -150 0 0 98 c0 110 15 147 72 182 32 19 52 20 671 20 569 0
643 -2 673 -16z m2400 0 c62 -30 79 -65 82 -181 l4 -103 -151 0 -151 0 0 -150
0 -150 151 0 151 0 -4 -102 c-2 -87 -6 -108 -25 -134 -47 -66 -24 -64 -730
-64 -619 0 -639 1 -671 20 -57 35 -72 72 -72 183 l0 97 150 0 150 0 0 150 0
150 -150 0 -150 0 0 98 c0 110 15 147 72 182 32 19 52 20 671 20 569 0 643 -2
673 -16z"/>
</g>
</svg>
