<?xml version="1.0" standalone="no"?>
<!DOCTYPE svg PUBLIC "-//W3C//DTD SVG 20010904//EN"
 "http://www.w3.org/TR/2001/REC-SVG-20010904/DTD/svg10.dtd">
<svg version="1.0" xmlns="http://www.w3.org/2000/svg"
 width="512.000000pt" height="512.000000pt" viewBox="0 0 512.000000 512.000000"
 preserveAspectRatio="xMidYMid meet">

<g transform="translate(0.000000,512.000000) scale(0.100000,-0.100000)"
fill="#000000" stroke="none">
<path d="M843 4734 l-553 -386 0 -867 c0 -535 4 -899 10 -951 79 -642 564
-1369 1289 -1930 243 -188 482 -341 793 -507 l176 -94 120 60 c677 339 1276
830 1664 1362 224 307 377 629 455 956 l28 118 0 930 0 930 -545 382 -545 382
-1170 0 -1170 1 -552 -386z m3142 -340 l395 -277 0 -764 c0 -726 -1 -770 -20
-863 -69 -340 -303 -750 -625 -1100 -283 -306 -652 -593 -1067 -828 l-107 -60
-88 50 c-377 215 -673 432 -941 693 -392 381 -647 777 -759 1182 l-27 98 -3
795 -4 795 398 278 397 277 1027 0 1028 0 396 -276z"/>
<path d="M2560 3601 l0 -770 197 202 c109 111 276 282 372 379 l175 177 105
-102 c58 -56 107 -104 108 -107 2 -3 -213 -227 -477 -499 l-480 -494 0 -763
c0 -420 3 -764 6 -764 31 0 377 233 553 373 148 117 426 392 533 527 163 204
309 459 371 646 55 168 57 200 57 903 l0 646 -298 207 -297 208 -462 0 -463 0
0 -769z"/>
</g>
</svg>
