<?xml version="1.0" encoding="UTF-8"?> <svg xmlns="http://www.w3.org/2000/svg" viewBox="0 0 445.15 151.55"><defs><style>.cls-1{fill:#010101;}.cls-2{fill:#fcd15a;}</style></defs><g id="Calque_2" data-name="Calque 2"><g id="Calque_3" data-name="Calque 3"><path class="cls-1" d="M176.32,100.58h15.45V77H177.42V66h25.94v34.58H216.6v11H176.32Zm29.89-48.1a8.64,8.64,0,0,1-.69,3.45,8.39,8.39,0,0,1-1.88,2.76,9.31,9.31,0,0,1-2.81,1.84,8.62,8.62,0,0,1-6.76,0,9.45,9.45,0,0,1-2.76-1.84,8.24,8.24,0,0,1-1.88-2.76,9,9,0,0,1,0-6.9,8.35,8.35,0,0,1,1.88-2.76,9.42,9.42,0,0,1,2.76-1.83,8.51,8.51,0,0,1,6.76,0,9.28,9.28,0,0,1,2.81,1.83A8.5,8.5,0,0,1,205.52,49,8.68,8.68,0,0,1,206.21,52.48Z"></path><path class="cls-1" d="M232.15,47.24H272.8V58.83H244.29V73.55H271.7V85.13H244.29V100H273.9v11.59H232.15Z"></path><path class="cls-1" d="M318.32,66h12.79l-11,21.43v1.65l11.68,22.54H318.42l-8.56-17.84h-1.65l-8.55,17.84H286.32L298,89.08V87.43L286.87,66h12.88l8.46,16.74h1.65Z"></path><path class="cls-1" d="M354.56,92.58a9,9,0,0,0,1,3.73,9.28,9.28,0,0,0,2.4,2.94,11.27,11.27,0,0,0,3.49,1.93,12.61,12.61,0,0,0,4.19.69,12.06,12.06,0,0,0,6.62-1.51,9.14,9.14,0,0,0,3.31-3.64l9.93,5.52a19.87,19.87,0,0,1-2.3,3.63,15.88,15.88,0,0,1-3.82,3.45,21.5,21.5,0,0,1-5.7,2.58,27.53,27.53,0,0,1-7.86,1,25.59,25.59,0,0,1-9.38-1.66,20.71,20.71,0,0,1-7.31-4.78,21.48,21.48,0,0,1-4.78-7.63,28.61,28.61,0,0,1-1.71-10.21v-.56a24.63,24.63,0,0,1,1.8-9.56,21.63,21.63,0,0,1,4.92-7.36,22.71,22.71,0,0,1,7.31-4.74,23.67,23.67,0,0,1,9-1.7,22.66,22.66,0,0,1,10.11,2.08,21.62,21.62,0,0,1,7,5.24,20.56,20.56,0,0,1,4.05,7,23,23,0,0,1,1.29,7.4v6.16ZM365.5,75.2a11,11,0,0,0-7.17,2.25,10.33,10.33,0,0,0-3.59,5.2h21.52a8.15,8.15,0,0,0-3.45-5.33A12,12,0,0,0,365.5,75.2Z"></path><path class="cls-1" d="M445.15,94.88a22,22,0,0,1-7.41,13.06q-5.83,5-15.58,5a27.81,27.81,0,0,1-9.43-1.57,22,22,0,0,1-7.59-4.5,20.65,20.65,0,0,1-5.06-7.27,25,25,0,0,1-1.84-9.84v-1.1a25.66,25.66,0,0,1,1.84-9.93,22.07,22.07,0,0,1,5.11-7.55,22.47,22.47,0,0,1,7.63-4.78,26.19,26.19,0,0,1,9.34-1.66q9.55,0,15.49,5a21.85,21.85,0,0,1,7.5,13.06l-11.41,3a11.85,11.85,0,0,0-3.49-7q-2.94-3-8.28-3a12.14,12.14,0,0,0-4.69.92,11.64,11.64,0,0,0-3.86,2.62,12.25,12.25,0,0,0-2.62,4.14,14.84,14.84,0,0,0-1,5.47v.56a14,14,0,0,0,1,5.37,11,11,0,0,0,2.62,3.92,10.79,10.79,0,0,0,3.86,2.34,14,14,0,0,0,4.69.78q5.34,0,8.14-2.67A12.72,12.72,0,0,0,433.74,92Z"></path><path class="cls-2" d="M63.22,30.13a21,21,0,0,0-18.89,22.4,7.89,7.89,0,0,1-3.86,7.29A8.05,8.05,0,0,1,36.25,61a8.17,8.17,0,0,1-4-1.15,21,21,0,0,0-11.16-3.25,22.61,22.61,0,0,0-2.46.18,21,21,0,0,0,2.46,41.73h0a14.59,14.59,0,0,0,2-.09A21,21,0,0,0,42,79.42a20.69,20.69,0,0,0,0-3.34,7.87,7.87,0,0,1,3.87-7.29A7.71,7.71,0,0,1,50,67.64a7.34,7.34,0,0,1,4,1.15A21,21,0,0,0,65.24,72,22.48,22.48,0,0,0,67.7,72a21,21,0,0,0-2.46-41.82,15.11,15.11,0,0,0-2,0"></path><path class="cls-2" d="M107.42,56.66A21,21,0,0,0,88.53,79.07a8,8,0,0,1-3.78,7.2l-.09.09a7.8,7.8,0,0,1-4.22,1.14,8.29,8.29,0,0,1-4-1.14,20.88,20.88,0,0,0-32.07,19.15,7.89,7.89,0,0,1-3.86,7.29A8.05,8.05,0,0,1,36.25,114a8.17,8.17,0,0,1-4-1.15,21,21,0,0,0-11.16-3.25,22.61,22.61,0,0,0-2.46.18A21,21,0,0,0,21,151.55a15.17,15.17,0,0,0,2-.09,20.89,20.89,0,0,0,18.8-19,20.57,20.57,0,0,0,0-3.33,7.87,7.87,0,0,1,3.87-7.21l.09-.09A7.8,7.8,0,0,1,50,120.71a7.43,7.43,0,0,1,4,1.14,20.89,20.89,0,0,0,11.16,3.25c.79,0,1.58-.08,2.37-.08A20.69,20.69,0,0,0,86.07,102.7a8,8,0,0,1,8.08-8.43,7.43,7.43,0,0,1,4,1.14,20.92,20.92,0,0,0,11.16,3.25,22.61,22.61,0,0,0,2.46-.18,21,21,0,0,0-2.46-41.82,6.9,6.9,0,0,0-1.93,0"></path><path class="cls-2" d="M36.27,36.9l-.89-4.35h.09a2.89,2.89,0,0,0,1.59-3.81h0l3.37-2.22c.18.18.36.27.45.44L36.71,37a1.2,1.2,0,0,0-.44-.09M36.35,21l3.37,2.22a3.26,3.26,0,0,0,0,2.22h0l-3.37,2.21a3,3,0,0,0-3.9-.26l-1.77-1.6a2.67,2.67,0,0,0,0-3l1.77-1.6a3.33,3.33,0,0,0,1.78.62,2.67,2.67,0,0,0,2.12-.8m-8.6-7.27.53-.27,3.64,3.73A2.82,2.82,0,0,0,31.56,20h0c.09.17.09.26.18.44L30,22a2.93,2.93,0,0,0-3.46-.09l-3-3a2.93,2.93,0,0,0-.09-3.46l1.69-1.95a2.86,2.86,0,0,0,2.66.27m9.14,6.3a2.91,2.91,0,0,0-1.6-3.82H35.2l.89-4.52a1.1,1.1,0,0,0,.53-.09L40.7,21.91c-.18.09-.35.26-.53.35h0Zm-29.63-8c.36-.17,1.42-.71,1.6-1.59l4,.79A3.72,3.72,0,0,0,13.29,13L9.66,16.59A2.93,2.93,0,0,0,8,16.05ZM29,12.68a3.22,3.22,0,0,0,.53-1.86l3.91-.89A2.64,2.64,0,0,0,35,11.44L34.14,16a5.16,5.16,0,0,0-1.16.17,2.11,2.11,0,0,0-.44.27Zm-6.83-7L24.47,9a2.94,2.94,0,0,0-.18,3.81l-1.68,2a3.07,3.07,0,0,0-3,0L18.08,13a3,3,0,0,0-.26-3.9L20,5.77a3.5,3.5,0,0,0,.89.17,2.93,2.93,0,0,0,1.24-.26M9,9.4V8.87L18.53,4.7c.17.18.35.44.53.62L16.84,8.69A2.9,2.9,0,0,0,13,10.29Zm14-4.34a1.65,1.65,0,0,0,.35-.54h0l9.85,3.73v.62l-3.9,1a2.9,2.9,0,0,0-3.82-1.51h-.09Zm-2.13-5a2.94,2.94,0,0,0-2.84,2.39,2.92,2.92,0,0,0,0,1.25L8.59,7.81a2.32,2.32,0,0,0-.44-.54A3,3,0,0,0,4,11.44c.09.09.18.18.27.18A20.39,20.39,0,0,0,.08,22.17V24.3a21.2,21.2,0,0,0,21.2,21.2h0a18.92,18.92,0,0,0,2.12-.17,21,21,0,0,0,10.83-4.44c0,.09.08.09.08.18a2.51,2.51,0,0,0,3.55-3.55,1.33,1.33,0,0,0-.35-.27l4.17-10a2.93,2.93,0,0,0,1.42-5.68H43a2.18,2.18,0,0,0-.71-.08,1.2,1.2,0,0,0-.53.08L37.68,11.26a3,3,0,1,0-3.1-5,2.68,2.68,0,0,0-1,1L23.76,3.46A2.85,2.85,0,0,0,21.45.09c-.17,0-.35-.09-.53-.09h0Z"></path></g></g></svg> 